<svg width="84" height="84" viewBox="0 0 84 84" fill="none" xmlns="http://www.w3.org/2000/svg">
<circle cx="42" cy="42" r="42" fill="white"/>
<path d="M38.2339 76.3401L34.2002 77.2839L28.2717 51.9448C26.7425 52.7925 25.6327 53.8901 24.9424 55.2377C24.252 56.5854 24.1042 58.1026 24.4989 59.7894C24.6533 60.4495 24.8337 61.0003 25.0402 61.4419C25.2409 61.8591 25.4547 62.2216 25.6814 62.5296C25.9025 62.8131 26.1394 63.0542 26.3921 63.2529C26.6636 63.4214 26.9323 63.5778 27.1981 63.7219C25.7313 64.065 24.4928 64.0067 23.4827 63.5468C22.467 63.0625 21.7703 62.0136 21.3928 60.4001C21.1183 59.2266 21.1665 58.055 21.5374 56.8853C21.9026 55.6911 22.4949 54.5856 23.3142 53.5688C24.1522 52.5218 25.1647 51.6145 26.3517 50.8469C27.5632 50.0735 28.8656 49.5238 30.2591 49.1978C30.528 49.1349 30.7876 49.0871 31.0378 49.0543C31.3067 48.9914 31.5662 48.9436 31.8164 48.9108L38.2339 76.3401Z" fill="#26547C"/>
<path d="M45.7608 57.3819C45.934 57.1405 46.0272 56.803 46.0405 56.3694C46.0811 55.9294 46.06 55.5326 45.9772 55.1788C45.8117 54.4714 45.4803 53.9749 44.983 53.6895C44.4794 53.3768 43.9147 53.2937 43.2888 53.4401C42.5269 53.6184 41.9512 54.0401 41.5615 54.7052C41.199 55.364 40.9668 56.1502 40.8649 57.0637C40.7566 57.95 40.7521 58.9125 40.8516 59.9511C40.972 60.9561 41.1404 61.9212 41.3568 62.8464C41.7006 64.3157 42.1031 65.4843 42.5645 66.3521C43.0258 67.22 43.5347 67.8615 44.091 68.2766C44.6473 68.6917 45.2334 68.9277 45.8494 68.9845C46.4654 69.0413 47.0863 68.9964 47.7121 68.85C49.4808 68.4362 50.7869 67.4562 51.6305 65.9099C51.8597 66.8895 51.901 67.7408 51.7545 68.4639C51.6016 69.1597 51.3112 69.7586 50.8834 70.2605C50.4555 70.7624 49.9341 71.1714 49.3193 71.4874C48.7045 71.8035 48.0569 72.0411 47.3767 72.2002C46.3971 72.4294 45.3961 72.5058 44.3738 72.4293C43.345 72.3256 42.3606 71.9819 41.4204 71.3983C40.5075 70.8083 39.6765 69.9552 38.9275 68.8389C38.1721 67.6955 37.5747 66.185 37.1355 64.3075C36.8872 63.2464 36.7087 62.054 36.5999 60.7306C36.512 59.3736 36.6233 58.0704 36.9337 56.8211C37.2377 55.5446 37.7936 54.4245 38.6013 53.4606C39.4298 52.4632 40.6331 51.7798 42.2113 51.4106C43.8711 51.0223 45.2382 51.1616 46.3127 51.8286C47.408 52.462 48.1275 53.5134 48.4713 54.9828C48.6559 55.7719 48.6662 56.4295 48.5024 56.9557C48.3593 57.4484 48.0157 57.7584 47.4715 57.8857C46.8729 58.0258 46.3027 57.8578 45.7608 57.3819Z" fill="#26547C"/>
<path d="M61.4503 45.5606L66.2396 69.3535C66.4988 70.641 66.5796 71.7507 66.4821 72.6825C66.3901 73.6417 66.1527 74.4449 65.7699 75.0921C65.42 75.7611 64.9548 76.2823 64.3743 76.6557C63.8213 77.0236 63.2023 77.2765 62.5174 77.4143C61.1477 77.69 59.9993 77.5079 59.0723 76.8678C58.1508 76.2551 57.577 75.3872 57.3509 74.264C57.2076 73.5517 57.2287 72.8776 57.4142 72.2416C57.6271 71.6002 57.9305 70.9832 58.3244 70.3909C58.7512 69.8204 59.241 69.2799 59.7939 68.7696C60.3797 68.2811 60.9738 67.8337 61.5761 67.4274L61.055 64.8385C60.667 65.7433 60.1555 66.4591 59.5204 66.986C58.9127 67.5074 58.2527 67.8398 57.5405 67.9832C56.746 68.1431 55.9706 68.1852 55.2142 68.1094C54.4578 68.0336 53.7697 67.8015 53.1499 67.4132C52.5246 66.9974 51.9814 66.4227 51.5201 65.6889C51.0533 64.9277 50.7014 63.9581 50.4642 62.7801L47.5609 48.3564L51.6702 47.5293L54.4825 61.5009C54.7528 62.8433 55.1786 63.7552 55.7601 64.2368C56.3362 64.6909 56.9803 64.8463 57.6926 64.703C58.0761 64.6258 58.4403 64.4527 58.7853 64.1837C59.1247 63.8873 59.4065 63.5171 59.6306 63.0729C59.8548 62.6287 60.0076 62.1133 60.0891 61.5268C60.1705 60.9403 60.1396 60.2909 59.9962 59.5786L57.341 46.3878L61.4503 45.5606ZM61.3065 75.4346C62.0462 75.2858 62.4677 74.9016 62.5711 74.2822C62.7074 73.6846 62.679 72.9065 62.486 71.9476L61.907 69.0711C60.664 69.9769 59.8156 70.7891 59.3616 71.5076C58.9131 72.2535 58.7661 73.01 58.9205 73.777C59.0473 74.4071 59.3109 74.8672 59.7114 75.1571C60.1447 75.469 60.6764 75.5615 61.3065 75.4346Z" fill="#26547C"/>
<path d="M52.3504 19.452C48.9967 20.2753 39.3249 26.9182 25.0414 26.1559C24.7398 21.3061 26.4544 11.1154 35.7252 9.1506C44.9961 7.18576 50.6715 15.1995 52.3504 19.452Z" fill="#06D6A0" stroke="white" stroke-width="3.13838"/>
<path d="M63.9892 30.1784C60.1561 30.9748 48.9096 38.0163 32.7772 36.6639C32.6545 31.2628 35.0547 19.9965 45.6364 18.1405C56.2182 16.2844 62.2807 25.3924 63.9892 30.1784Z" fill="#FFD166" stroke="white" stroke-width="3.13838"/>
<path d="M43.2091 37.8578C39.8371 38.0078 27.0705 41.2634 15.7513 39.0795C16.3783 34.1883 19.948 24.3797 29.2106 24.2747C38.4732 24.1698 42.4023 33.2864 43.2091 37.8578Z" fill="#EF476F" stroke="white" stroke-width="3.13838"/>
<path d="M65.172 30.648L65.5802 36.9925L53.9253 40.6092L42.1995 43.1232L30.007 45.2273L18.3045 46.86L15.5951 40.2084L27.8304 38.769L33.9151 37.8279L40.4613 36.6367L52.6256 34.0945L65.172 30.648Z" fill="#26547C" stroke="white" stroke-width="2.62298"/>
</svg>
