<svg width="100" height="100" viewBox="0 0 100 100" fill="none" xmlns="http://www.w3.org/2000/svg">
<circle cx="50" cy="50" r="50" fill="white"/>
<path d="M43.6169 83.8919L39.5832 84.8357L33.6548 59.4965C32.1255 60.3442 31.0157 61.4419 30.3254 62.7895C29.6351 64.1372 29.4873 65.6544 29.8819 67.3412C30.0363 68.0013 30.2168 68.5521 30.4232 68.9937C30.624 69.4109 30.8377 69.7734 31.0645 70.0814C31.2855 70.3649 31.5224 70.606 31.7752 70.8047C32.0467 70.9732 32.3153 71.1295 32.5811 71.2736C31.1143 71.6168 29.8759 71.5585 28.8658 71.0986C27.85 70.6143 27.1534 69.5654 26.7759 67.9519C26.5013 66.7784 26.5495 65.6068 26.9205 64.4371C27.2857 63.2429 27.878 62.1374 28.6972 61.1206C29.5353 60.0736 30.5478 59.1663 31.7348 58.3987C32.9462 57.6253 34.2487 57.0756 35.6422 56.7496C35.9111 56.6867 36.1706 56.6388 36.4208 56.6061C36.6897 56.5432 36.9493 56.4953 37.1995 56.4626L43.6169 83.8919Z" fill="#26547C"/>
<path d="M53.4747 63.1757C53.6478 62.9343 53.7411 62.5967 53.7544 62.1631C53.795 61.7231 53.7739 61.3263 53.6911 60.9726C53.5256 60.2651 53.1942 59.7686 52.6969 59.4832C52.1933 59.1705 51.6285 59.0874 51.0027 59.2338C50.2408 59.4121 49.665 59.8338 49.2754 60.499C48.9129 61.1577 48.6807 61.9439 48.5787 62.8575C48.4704 63.7438 48.466 64.7062 48.5655 65.7448C48.6858 66.7499 48.8542 67.715 49.0707 68.6401C49.4145 70.1094 49.817 71.278 50.2784 72.1459C50.7397 73.0137 51.2485 73.6552 51.8048 74.0703C52.3612 74.4855 52.9473 74.7214 53.5633 74.7782C54.1792 74.835 54.8001 74.7902 55.426 74.6437C57.1946 74.2299 58.5008 73.2499 59.3444 71.7037C59.5736 72.6832 59.6149 73.5346 59.4684 74.2576C59.3155 74.9535 59.0251 75.5524 58.5972 76.0543C58.1694 76.5561 57.648 76.9651 57.0332 77.2812C56.4183 77.5972 55.7708 77.8348 55.0905 77.994C54.111 78.2232 53.11 78.2995 52.0876 78.223C51.0589 78.1193 50.0744 77.7756 49.1343 77.192C48.2214 76.602 47.3904 75.7489 46.6414 74.6327C45.8859 73.4892 45.2886 71.9788 44.8493 70.1013C44.6011 69.0401 44.4225 67.8478 44.3138 66.5243C44.2259 65.1673 44.3372 63.8642 44.6476 62.6149C44.9516 61.3384 45.5075 60.2182 46.3151 59.2543C47.1436 58.2569 48.347 57.5736 49.9252 57.2043C51.585 56.816 52.9521 56.9553 54.0265 57.6223C55.1218 58.2558 55.8414 59.3072 56.1851 60.7765C56.3697 61.5656 56.3801 62.2232 56.2162 62.7495C56.0732 63.2421 55.7296 63.5521 55.1854 63.6794C54.5868 63.8195 54.0165 63.6516 53.4747 63.1757Z" fill="#26547C"/>
<path d="M71.686 50.4462L76.4753 74.2391C76.7345 75.5267 76.8153 76.6364 76.7178 77.5681C76.6259 78.5273 76.3885 79.3305 76.0056 79.9777C75.6557 80.6467 75.1905 81.1679 74.6101 81.5413C74.057 81.9092 73.438 82.1621 72.7531 82.2999C71.3834 82.5757 70.235 82.3935 69.308 81.7534C68.3865 81.1408 67.8128 80.2728 67.5867 79.1496C67.4433 78.4373 67.4644 77.7632 67.6499 77.1273C67.8629 76.4858 68.1663 75.8689 68.5601 75.2765C68.9869 74.706 69.4767 74.1656 70.0296 73.6552C70.6154 73.1667 71.2095 72.7193 71.8118 72.313L71.2907 69.7242C70.9027 70.6289 70.3912 71.3447 69.7561 71.8716C69.1484 72.393 68.4884 72.7254 67.7762 72.8688C66.9817 73.0287 66.2063 73.0708 65.4499 72.995C64.6935 72.9192 64.0054 72.6871 63.3856 72.2988C62.7603 71.8831 62.2171 71.3083 61.7558 70.5745C61.289 69.8133 60.9371 68.8437 60.7 67.6657L57.7966 53.2421L61.9059 52.4149L64.7183 66.3865C64.9885 67.7289 65.4143 68.6408 65.9959 69.1224C66.5719 69.5766 67.216 69.732 67.9283 69.5886C68.3118 69.5114 68.6761 69.3383 69.021 69.0693C69.3604 68.773 69.6422 68.4027 69.8663 67.9585C70.0905 67.5143 70.2433 66.9989 70.3248 66.4124C70.4063 65.8259 70.3753 65.1765 70.2319 64.4643L67.5767 51.2734L71.686 50.4462ZM71.5422 80.3203C72.2819 80.1714 72.7034 79.7872 72.8068 79.1678C72.9431 78.5703 72.9147 77.7921 72.7217 76.8332L72.1427 73.9567C70.8997 74.8625 70.0513 75.6747 69.5973 76.3932C69.1488 77.1391 69.0018 77.8956 69.1562 78.6626C69.283 79.2927 69.5467 79.7528 69.9471 80.0427C70.3804 80.3546 70.9122 80.4471 71.5422 80.3203Z" fill="#26547C"/>
<path d="M62.3216 23.1572C58.3291 24.1373 46.815 32.0455 29.8109 31.1379C29.4519 25.3644 31.4931 13.2326 42.5298 10.8935C53.5665 8.55446 60.323 18.0947 62.3216 23.1572Z" fill="#06D6A0" stroke="white" stroke-width="3.13838"/>
<path d="M76.1776 35.9266C71.6145 36.8748 58.2257 45.2575 39.0205 43.6474C38.8745 37.2176 41.7318 23.8054 54.3291 21.5958C66.9265 19.3862 74.1437 30.229 76.1776 35.9266Z" fill="#FFD166" stroke="white" stroke-width="3.13838"/>
<path d="M51.4392 45.0688C47.4249 45.2474 32.2267 49.1232 18.7514 46.5232C19.4978 40.7004 23.7475 29.0235 34.7744 28.8985C45.8013 28.7735 50.4788 39.6266 51.4392 45.0688Z" fill="#EF476F" stroke="white" stroke-width="3.13838"/>
<path d="M77.5856 36.4857L78.0715 44.0387L64.1966 48.3443L50.2373 51.3371L35.7224 53.842L21.7909 55.7857L18.5654 47.8672L33.1312 46.1536L40.375 45.0333L48.168 43.6151L62.6494 40.5887L77.5856 36.4857Z" fill="#26547C" stroke="white" stroke-width="2.62298"/>
</svg>
